<?xml version="1.0" encoding="UTF-8" standalone="no"?>
<svg
   width="181.68845"
   height="56.221806"
   viewBox="0 0 48.071735 14.875353"
   version="1.1"
   id="svg8"
   inkscape:version="1.1-beta1 (77e7b44, 2021-03-28)"
   sodipodi:docname="gdquest_logo_white.svg"
   xmlns:inkscape="http://www.inkscape.org/namespaces/inkscape"
   xmlns:sodipodi="http://sodipodi.sourceforge.net/DTD/sodipodi-0.dtd"
   xmlns="http://www.w3.org/2000/svg"
   xmlns:svg="http://www.w3.org/2000/svg"
   xmlns:rdf="http://www.w3.org/1999/02/22-rdf-syntax-ns#"
   xmlns:cc="http://creativecommons.org/ns#"
   xmlns:dc="http://purl.org/dc/elements/1.1/">
  <defs
     id="defs2" />
  <sodipodi:namedview
     id="base"
     pagecolor="#ffffff"
     bordercolor="#666666"
     borderopacity="1.0"
     inkscape:pageopacity="0.0"
     inkscape:pageshadow="2"
     inkscape:zoom="0.80833333"
     inkscape:cx="960"
     inkscape:cy="540"
     inkscape:document-units="mm"
     inkscape:current-layer="layer1"
     showgrid="true"
     units="px"
     inkscape:window-width="1920"
     inkscape:window-height="1012"
     inkscape:window-x="0"
     inkscape:window-y="32"
     inkscape:window-maximized="1"
     objecttolerance="10.0"
     gridtolerance="10.0"
     guidetolerance="10.0"
     inkscape:pagecheckerboard="1">
    <inkscape:grid
       type="xygrid"
       id="grid27"
       originy="-78.587861"
       spacingx="5.2916667"
       spacingy="5.2916667"
       originx="-343.90344" />
  </sodipodi:namedview>
  <metadata
     id="metadata5">
    <rdf:RDF>
      <cc:Work
         rdf:about="">
        <dc:format>image/svg+xml</dc:format>
        <dc:type
           rdf:resource="http://purl.org/dc/dcmitype/StillImage" />
      </cc:Work>
    </rdf:RDF>
  </metadata>
  <g
     inkscape:label="Layer 1"
     inkscape:groupmode="layer"
     id="layer1"
     transform="translate(-343.90344,-111.0045)">
    <path
       id="path6321"
       class="cls-1"
       d="m 349.50996,111.00708 a 0.64029166,0.64029166 0 0 0 -0.18785,0.0212 l -0.71702,0.19314 a 6.3499999,6.3499999 0 0 0 -4.70165,6.12246 v 0 a 6.3658749,6.3658749 0 0 0 5.38692,6.26798 v 0.0609 l 0.0953,0.96308 a 0.63235416,0.63235416 0 0 0 0.69321,0.56885 v 0 l 2.20397,-0.22489 0.47096,0.64294 a 0.63499999,0.63499999 0 0 0 0.67469,0.23547 l 0.71702,-0.1905 a 6.3023749,6.3023749 0 0 0 4.01638,-3.3602 4.8894999,4.8894999 0 0 0 3.30993,0.79375 6.4928749,6.4928749 0 0 0 1.5875,-0.48419 l 2.96598,0.12964 v 0 c 1.28059,0.0344 2.60086,-0.22225 3.47398,-1.03716 a 4.8471666,4.8471666 0 0 0 3.57452,1.07421 0.54768749,0.54768749 0 0 0 0.11907,-0.0317 l 0.54768,0.6932 a 0.63499999,0.63499999 0 0 0 0.87313,0.11907 l 1.43933,-1.05834 a 3.175,3.175 0 0 0 1.32292,0.32809 0.59002083,0.59002083 0 0 0 0.31221,-0.0847 0.57149999,0.57149999 0 0 0 0.1905,0.0212 l 3.28612,-0.14023 a 0.62970833,0.62970833 0 0 0 0.47625,-0.26459 c 0.12171,0.0344 0.13758,0.0847 0.29633,0.0926 a 4.3920833,4.3920833 0 0 0 1.48696,-0.23813 4.4741041,4.4741041 0 0 0 4.21217,0.14817 3.0268333,3.0268333 0 0 0 0.98425,0.30692 3.96875,3.96875 0 0 0 2.05052,-0.39952 l 0.77523,-0.37836 a 0.63235416,0.63235416 0 0 0 0.33867,-0.70908 l -0.42863,-1.88383 a 0.63235416,0.63235416 0 0 0 0.37306,-0.52917 l 0.24342,-2.94481 a 0.63235416,0.63235416 0 0 0 -0.57679,-0.68263 v 0 l -0.66675,-0.0503 0.0503,-0.57415 a 0.63499999,0.63499999 0 0 0 -0.57944,-0.68527 v 0 l -3.25966,-0.25135 a 0.63235416,0.63235416 0 0 0 -0.67998,0.57944 l -0.0503,0.57943 h -0.0317 a 0.63235416,0.63235416 0 0 0 -0.49213,0.18257 0.85460416,0.85460416 0 0 0 -0.4154,-0.0265 4.1989374,4.1989374 0 0 0 -0.97102,0.34131 3.8787916,3.8787916 0 0 0 -1.94733,-0.69585 3.65125,3.65125 0 0 0 -1.34673,0.25135 0.66939582,0.66939582 0 0 0 -0.1905,-0.0212 l -3.23585,0.14023 v 0 h -0.045 l -1.56104,0.0635 a 4.7916041,4.7916041 0 0 0 -6.52992,-0.34395 5.2652083,5.2652083 0 0 0 -2.92894,-1.10332 l -3.73856,-0.16404 a 0.63235416,0.63235416 0 0 0 -0.65881,0.5715 5.3181249,5.3181249 0 0 0 -1.93675,-0.11906 5.0614791,5.0614791 0 0 0 -3.0189,1.71714 c -0.94192,-1.11389 -2.17487,-1.99495 -3.68564,-2.2516 v -0.0661 l -0.0979,-0.96572 a 0.63499999,0.63499999 0 0 0 -0.69321,-0.56621 v 0 l -2.20398,0.22489 -0.47889,-0.64558 a 0.62441666,0.62441666 0 0 0 -0.48684,-0.26458 z m -0.0212,0.63236 0.6932,0.93662 2.56382,-0.26458 0.15345,1.53458 v 0 a 5.6250416,5.6250416 0 0 1 4.26244,2.55058 4.5534791,4.5534791 0 0 1 3.11679,-1.94733 5.2493333,5.2493333 0 0 1 2.44211,0.28311 l 0.0344,-0.73025 3.7465,0.16668 a 4.5772916,4.5772916 0 0 1 2.97127,1.21444 4.4132499,4.4132499 0 0 1 2.50032,-1.19592 4.3391666,4.3391666 0 0 1 3.85233,1.43669 l 1.74625,-0.0741 h 0.0476 l 3.23586,-0.14023 v 0.0503 a 3.4686875,3.4686875 0 0 1 1.47373,-0.28046 3.39725,3.39725 0 0 1 1.91558,0.75142 3.6486041,3.6486041 0 0 1 1.143,-0.40481 4.3762083,4.3762083 0 0 1 0.74083,0.0635 l 0.0159,-0.21167 0.65881,0.0529 0.10054,-1.20915 3.2729,0.25929 -0.10054,1.2065 1.30175,0.10319 -0.25136,2.92364 -0.52916,-0.0397 0.6006,2.64583 -0.77258,0.37835 a 3.3893125,3.3893125 0 0 1 -1.72509,0.33867 2.6458333,2.6458333 0 0 1 -1.03981,-0.33337 3.7438541,3.7438541 0 0 1 -1.19327,0.40216 3.96875,3.96875 0 0 1 -2.6961,-0.43921 l -0.17727,-0.10318 a 3.9502291,3.9502291 0 0 1 -1.5875,0.26458 c -0.31486,-0.0159 -0.56092,-0.20108 -0.85196,-0.29104 l 0.0212,0.44979 -3.28612,0.14023 v -0.0847 a 3.1935208,3.1935208 0 0 1 -0.49477,0.14817 2.8627916,2.8627916 0 0 1 -1.4605,-0.36777 l -1.66158,1.22502 -0.79375,-1.01865 a 4.1354374,4.1354374 0 0 1 -0.43921,0.11907 4.3206458,4.3206458 0 0 1 -3.58511,-1.23296 c -0.60854,0.89694 -1.97908,1.22766 -3.37079,1.19327 l -3.06123,-0.13494 a 6.0642499,6.0642499 0 0 1 -1.61396,0.49742 4.4106041,4.4106041 0 0 1 -3.4925,-1.016 5.7123541,5.7123541 0 0 1 -3.92377,3.60891 l -0.71702,0.19315 -0.66939,-0.94456 -2.56382,0.26458 -0.1561,-1.53194 v 0 a 5.7282291,5.7282291 0 0 1 -5.32871,-5.69648 v 0 a 5.7361666,5.7361666 0 0 1 4.23334,-5.51391 z m -0.45244,1.25412 -0.60854,0.22225 0.0767,1.00542 a 3.857625,3.857625 0 0 0 -0.60855,0.41539 l -0.93927,-0.38893 -0.4101,0.48948 0.56356,0.81491 a 3.7041666,3.7041666 0 0 0 -0.32014,0.67998 l -0.99219,0.11906 -0.10319,0.62707 0.89165,0.42333 c 0,0.12435 0,0.25135 0.0185,0.37835 a 3.4739791,3.4739791 0 0 0 0.0582,0.37571 l -0.79375,0.58473 0.22754,0.59267 0.99748,-0.0688 a 3.7465,3.7465 0 0 0 0.44979,0.60589 l -0.39159,0.90488 0.50007,0.40216 0.84402,-0.55827 a 3.603625,3.603625 0 0 0 0.66939,0.31221 l 0.12436,1.00013 0.64029,0.10318 0.45508,-0.92339 a 3.3205208,3.3205208 0 0 0 0.35984,-0.0212 v 0 l 1.7436,-0.16933 -0.24871,-2.4765 -1.7436,0.16669 0.0741,0.77258 v 0 a 1.9870208,1.9870208 0 0 1 -2.18017,-1.75419 1.9632083,1.9632083 0 0 1 1.79123,-2.13519 v 0 l 1.74361,-0.16933 -0.16934,-1.70656 -1.74625,0.16933 a 3.175,3.175 0 0 0 -0.35454,0.045 z m 3.78883,2.07169 -0.45773,0.92339 a 3.2332083,3.2332083 0 0 0 -0.35719,0.0212 l -1.74625,0.16933 0.17198,1.70657 1.74361,-0.16934 a 1.9870208,1.9870208 0 0 1 2.18281,1.75419 v 0 a 1.9632083,1.9632083 0 0 1 -1.79123,2.13519 v 0 l -1.7436,0.16933 0.16933,1.70656 1.74625,-0.16668 c 0.11906,0 0.23812,-0.0265 0.35454,-0.0476 l 0.63236,0.81756 0.60589,-0.22225 -0.0741,-1.00277 a 3.7041666,3.7041666 0 0 0 0.60854,-0.41804 l 0.93662,0.38894 0.41275,-0.48948 -0.5662,-0.81492 a 3.7226875,3.7226875 0 0 0 0.32279,-0.67998 l 0.98954,-0.11906 0.10583,-0.62706 -0.89429,-0.42069 a 2.6246666,2.6246666 0 0 0 -0.0185,-0.381 2.5796875,2.5796875 0 0 0 -0.0582,-0.37571 l 0.79375,-0.58473 -0.22754,-0.59266 -0.99748,0.0714 a 3.6168541,3.6168541 0 0 0 -0.44979,-0.60855 l 0.39158,-0.90487 -0.50006,-0.39952 -0.84402,0.56091 a 3.8523333,3.8523333 0 0 0 -0.67733,-0.29368 l -0.127,-1.00013 z m 10.95904,0.16139 -0.20637,4.40532 -0.26459,-1.61396 -1.67745,0.24606 0.20902,1.32292 a 2.2807083,2.2807083 0 0 1 -0.74613,0.30162 1.3229166,1.3229166 0 0 1 -1.54517,-1.16416 1.2911667,1.2911667 0 0 1 1.10332,-1.53988 2.3415625,2.3415625 0 0 1 1.5531,0.38894 l 0.90223,-1.45786 a 4.2333333,4.2333333 0 0 0 -2.69346,-0.50535 c -1.93146,0.2831 -3.13796,1.71979 -2.87337,3.40783 0.26458,1.68805 1.80975,2.7358 3.66448,2.46592 a 5.4239583,5.4239583 0 0 0 2.3151,-0.98954 l -0.0212,0.50271 2.58763,0.11377 c 1.71979,0.0741 2.95539,-0.69586 3.33639,-2.01084 0.41805,1.38113 1.82563,2.2569 3.43959,2.05846 a 3.571875,3.571875 0 0 0 0.98689,-0.26458 l 0.59002,0.74877 0.88371,-0.65087 -0.55562,-0.7038 a 2.8522083,2.8522083 0 0 0 0.79375,-1.29645 l 0.0265,0.58737 c 0.0476,1.03717 0.70643,1.66158 1.72773,1.6166 0.72495,-0.0291 1.25677,-0.32543 1.54516,-0.92339 l 0.037,0.81492 1.11655,-0.0476 -0.0741,-1.64042 c 0.28046,0.8308 1.03981,1.38113 2.10079,1.43669 a 2.5902708,2.5902708 0 0 0 1.95792,-0.65617 l -0.56356,-0.63235 a 1.730375,1.730375 0 0 1 -1.25413,0.42863 1.2594167,1.2594167 0 0 1 -1.24618,-1.07421 l 3.36285,0.17727 q 0.0159,-0.13494 0.0238,-0.26459 c 0.65088,0.79375 2.3204,0.29634 2.44211,0.98425 0.0503,0.28575 -0.21432,0.45509 -0.59267,0.52917 a 2.6008541,2.6008541 0 0 1 -1.6166,-0.28575 l -0.24607,0.79375 a 3.0030208,3.0030208 0 0 0 1.96321,0.30163 2.0055416,2.0055416 0 0 0 1.38113,-0.762 1.2647083,1.2647083 0 0 0 1.11389,0.68262 2.286,2.286 0 0 0 1.16417,-0.23283 l -0.18786,-0.8255 a 1.5875,1.5875 0 0 1 -0.66145,0.12964 c -0.29634,-0.0238 -0.46302,-0.17462 -0.42863,-0.59531 l 0.16404,-1.98173 1.30175,0.10054 0.0635,-0.78052 -1.2991,-0.10054 0.10054,-1.20914 -1.09802,-0.0847 -0.0952,1.21973 -0.64823,-0.0529 v 0.18256 a 3.2332083,3.2332083 0 0 0 -1.57162,-0.12964 c -0.62971,0.10319 -1.16946,0.39952 -1.38642,0.86783 -0.26458,-0.71173 -0.89694,-1.14829 -1.905,-1.20121 -1.21973,-0.0635 -2.15106,0.61648 -2.38125,1.72244 l -0.0661,-1.44462 -1.11654,0.045 0.10054,2.17753 c 0.0344,0.70643 -0.36777,1.27 -1.08214,1.32291 a 0.91281249,0.91281249 0 0 1 -1.02659,-0.94721 l -0.11112,-2.44739 -1.11654,0.0476 0.0185,0.41275 c -0.4789,-1.28058 -1.83621,-2.06639 -3.37873,-1.87589 a 3.1141458,3.1141458 0 0 0 -2.64583,2.02671 c -0.33603,-1.19857 -1.4314,-1.9685 -3.00038,-2.0373 z m 8.66511,1.10067 a 1.9685,1.9685 0 0 1 2.032,1.6854 1.8997083,1.8997083 0 0 1 -0.38365,1.41816 l -0.45244,-0.5715 -0.88371,0.65088 0.44715,0.56621 a 1.952625,1.952625 0 0 1 -0.45244,0.11112 2.0134791,2.0134791 0 0 1 -2.26748,-1.6801 1.9552708,1.9552708 0 0 1 1.75948,-2.16429 1.7145,1.7145 0 0 1 0.20109,-0.0159 z m -6.76275,0.47625 0.64823,0.0291 c 0.76729,0.0344 1.24354,0.61647 1.20385,1.47372 -0.0397,0.85725 -0.52917,1.37055 -1.2409,1.34144 l -0.7276,-0.0397 z m 16.42268,0.38894 h 0.12965 c 0.69056,0.037 1.11919,0.47096 1.1086,1.12448 l -2.38125,-0.12436 a 1.1826875,1.1826875 0 0 1 1.15623,-1.00277 z m 5.00857,0.23548 0.60589,0.0476 -0.127,1.53723 c -0.65352,-0.85196 -2.38125,-0.36512 -2.49502,-0.99483 -0.0503,-0.26458 0.18256,-0.42333 0.52917,-0.48154 a 2.8839583,2.8839583 0 0 1 1.38906,0.17991 z"
       style="fill:#ffffff;stroke-width:0.264583" />
  </g>
</svg>
