<?xml version="1.0" encoding="UTF-8" standalone="no"?>
<!-- Created with Inkscape (http://www.inkscape.org/) -->

<svg
   width="465.40726"
   height="261.64951"
   viewBox="0 0 123.139 69.228102"
   version="1.1"
   id="svg8"
   inkscape:version="1.1.1 (3bf5ae0, 2021-09-20)"
   sodipodi:docname="title.svg"
   xmlns:inkscape="http://www.inkscape.org/namespaces/inkscape"
   xmlns:sodipodi="http://sodipodi.sourceforge.net/DTD/sodipodi-0.dtd"
   xmlns="http://www.w3.org/2000/svg"
   xmlns:svg="http://www.w3.org/2000/svg"
   xmlns:rdf="http://www.w3.org/1999/02/22-rdf-syntax-ns#"
   xmlns:cc="http://creativecommons.org/ns#"
   xmlns:dc="http://purl.org/dc/elements/1.1/">
  <defs
     id="defs2">
    <clipPath
       clipPathUnits="userSpaceOnUse"
       id="clipPath874">
      <g
         inkscape:label="Clip"
         id="use876"
         style="stroke-width:1.5">
        <rect
           style="fill:#0e0421;stroke:#488bd4;stroke-width:0.396874;-inkscape-stroke:none;paint-order:stroke fill markers;stop-color:#000000"
           id="rect1558"
           width="508"
           height="285.75"
           x="0"
           y="11.249975" />
      </g>
    </clipPath>
  </defs>
  <sodipodi:namedview
     id="base"
     pagecolor="#ffffff"
     bordercolor="#666666"
     borderopacity="1.0"
     inkscape:pageopacity="0.0"
     inkscape:pageshadow="2"
     inkscape:zoom="0.80833333"
     inkscape:cx="960"
     inkscape:cy="540"
     inkscape:document-units="px"
     inkscape:current-layer="g4507"
     showgrid="false"
     units="px"
     inkscape:window-width="1920"
     inkscape:window-height="1012"
     inkscape:window-x="0"
     inkscape:window-y="32"
     inkscape:window-maximized="1"
     inkscape:pagecheckerboard="1"
     inkscape:snap-page="true"
     inkscape:snap-bbox="true"
     inkscape:bbox-paths="false"
     inkscape:bbox-nodes="true"
     inkscape:snap-bbox-edge-midpoints="true">
    <inkscape:grid
       type="xygrid"
       id="grid27"
       originy="-74.554452"
       spacingx="21.166667"
       spacingy="21.166667"
       empspacing="4"
       originx="-149.25248" />
  </sodipodi:namedview>
  <metadata
     id="metadata5">
    <rdf:RDF>
      <cc:Work
         rdf:about="">
        <dc:format>image/svg+xml</dc:format>
        <dc:type
           rdf:resource="http://purl.org/dc/dcmitype/StillImage" />
      </cc:Work>
    </rdf:RDF>
  </metadata>
  <g
     inkscape:label="Layer 1"
     inkscape:groupmode="layer"
     id="layer1"
     transform="translate(-149.25248,-85.804425)">
    <g
       style="fill:#ffffff;stroke-width:1.07386"
       transform="matrix(0.9312178,0,0,0.9312178,194.26013,-511.1099)"
       id="g4507">
      <path
         inkscape:connector-curvature="0"
         id="path4493"
         d="m -15.152541,651.09612 -0.10916,1.67356 c -2.19575,-0.46811 -4.50423,-0.63395 -6.85003,-0.40518 -3.37507,0.32917 -6.4612,1.42388 -8.80959,3.58782 -2.3484,2.16392 -3.66951,5.54924 -3.34709,8.85486 0.16543,1.69621 0.82074,3.26579 1.7031,4.59307 l -3.0201,7.98069 1.3251,0.82078 c -0.41675,0.30022 -0.84487,0.58381 -1.22406,0.93902 -2.33047,2.18329 -3.62443,5.57947 -3.27463,8.88253 0.17949,1.69487 0.84786,3.25928 1.74123,4.57925 l -2.95385,8.00497 3.19456,1.94333 c 4.02503,2.44867 8.82661,3.29347 13.38359,2.81085 2.72962,-0.28905 5.42175,-1.08113 7.73854,-2.81275 0.15822,-0.11825 0.2902,-0.28464 0.44328,-0.4142 2.13009,1.33775 4.68084,2.13354 7.3591301,2.17926 2.88802,0.0493 5.66556,-0.68071 7.98400998,-2.07964 0.0399,0.035 0.0749,0.0752 0.11535,0.10963 2.54254002,2.1609 5.95468002,3.10778 9.42972002,2.88902 2.0776299,-0.13078 4.0925599,-0.7344 5.8719499,-1.70978 l 7.7452,0.22355 -0.004,0.13252 0.0839,-0.13062 4.12022,0.11917 0.0334,-1.18544 c 2.5078,1.78851 5.68856,2.5446 8.97356,2.35327 2.80223,-0.16323 5.44389,-1.05406 7.61651,-2.54345 3.18852,3.08777 9.39961,3.61472 13.83594,1.94379 1.84738,0.41283 3.76506,0.56563 5.7013,0.41757 2.92952,-0.22401 5.65987,-1.11511 7.79908,-2.99245 2.13922,-1.87737 3.41901,-4.91209 3.19407,-7.8539 -0.13444,-1.75823 -0.88188,-3.41002 -1.86802,-4.70031 l 2.76223,-6.30429 -4.0287,-1.87183 c -1.4476,-0.67255 -2.95012,-1.15533 -4.47439,-1.47525 l -0.26454,-5.88481 4.90862,0.50478 -0.70688,-15.72256 -4.53684,0.20353 c -0.78981,0.0355 -1.56359,0.1796 -2.31417,0.39612 l -9.34249,0.41994 c -2.50176,-1.74765 -5.64661,-2.45848 -8.82626,-2.17549 -0.5199,0.0462 -1.02961,0.13836 -1.53627,0.23976 l 0.28695,-3.2427 -15.59624,-1.37992 -0.48428,5.47394 c -2.12326,-0.1261 -4.17303,0.37132 -5.97729,1.34991 -0.38604,-0.41724 -0.79768,-0.80952 -1.25504,-1.14497 -2.40407,-1.76317 -5.33707,-2.32514 -8.35199,-2.19738 -2.89512,0.12273 -5.8890599,0.86339 -8.8172199,2.02008 -1.18914,-0.55228 -2.48118,-0.89775 -3.79753002,-0.98383 -0.10341,-0.007 -0.20637,0.004 -0.30983,0 l 0.35368,-5.41529 z m 4.23558,4.82759 6.5607201,0.42853 -0.52051,7.96064 c 1.18568,-1.56245 2.90873,-2.38659 5.00823998,-2.24934 3.35340002,0.21922 5.55924002,2.76455 5.31903002,6.43869 l -0.12108,1.85037 c 0.84997,-1.52747 2.68476,-2.39006 5.4434299,-2.54677 l 3.64929,-0.15443 c -0.0762,-1.10823 -0.95007,-1.71494 -2.55584,-1.64686 -1.19704,0.0507 -3.0215799,0.47918 -4.8032699,1.22738 l -1.64543,-4.31756 c 2.67318,-1.10771 5.4523199,-1.78116 7.8171799,-1.88137 4.61296,-0.19545 7.44883,1.84879 7.60841,5.61502 l 0.0939,2.21504 c 0.90425,-3.93753 3.75395,-6.19505 7.59506,-5.85526 1.71738,0.15194 3.11356,0.95032 4.05588,2.23649 l 0.64635,-7.30622 6.54927,0.57962 -0.75741,8.56221 c 1.0241,-2.91807 3.65416,-4.83234 7.33338,-5.15983 4.76815,-0.4244 8.08977,2.08679 9.04934,6.5388 l -0.19543,-4.36001 6.56834,-0.29502 0.10487,2.33562 c 1.03461,-1.71381 2.68436,-2.75307 4.75704,-2.84613 l 0.26597,5.9258 c -2.96813,-0.30548 -4.84807,0.8324 -4.7537,2.93429 l 0.34272,7.61891 -6.56882,0.29506 -0.41374,-9.22239 -10.18903,0.90708 c 0.54801,1.21276 1.53681,1.76994 2.81752,1.65593 1.10607,-0.0985 2.19726,-0.69408 3.10399,-1.7136 l 3.70316,3.04393 c -1.5224,2.01313 -3.87386,3.27886 -6.9592,3.55349 -5.27616,0.46963 -8.7419,-2.25413 -9.34821,-6.90201 l -0.77171,8.72618 -6.54928,-0.57961 0.14157,-1.60063 c -1.12436,1.10335 -2.57834,1.61995 -4.20841,1.47574 -2.9665,-0.26244 -5.10739,-1.93052 -6.06356,-4.51824 l 0.0882,2.09016 -6.45203,0.27311 -0.0734,-1.72216 c -0.87983,1.32419 -2.3668,2.1184 -4.41051,2.20501 -2.7554499,0.11675 -4.6195399,-1.12102 -5.2880399,-3.22174 l -0.27217,4.16123 -6.56119,-0.42899 0.54196,-8.28145 c 0.0877,-1.34134 -0.61544,-2.23593 -1.75267,-2.31036 -1.28305,-0.0839 -2.16592,0.88311 -2.26699,2.42857 l -0.51669,7.90203 -6.5612001,-0.42898 0.25645,-3.92098 c -1.18082,2.44162 -4.08457,3.78892 -7.41298,4.11353 -3.54825,0.34606 -7.62029,-0.46057 -10.52651,-2.26172 l 2.00768,-5.30474 c 2.26425,1.54082 6.00961,2.61425 8.07458,2.41286 0.98887,-0.0965 1.59767,-0.47885 1.52674,-1.20594 -0.25812,-2.64666 -10.6457,0.12829 -11.3435,-7.02644 -0.39714,-4.07175 2.78509,-6.96583 8.07839,-7.48208 3.22834,-0.31488 6.66659,0.31857 9.10607,1.54865 l -1.94333,5.35716 c -2.17559,-0.93287 -5.46821,-1.87468 -7.24234,-1.70165 -0.75619,0.0738 -1.2273,0.35495 -1.16781,0.96571 0.2345,2.40429 9.42688,0.23003 11.13759,6.08167 z m 57.93297,10.34967 v 4.6e-4 c -0.069,-0.002 -0.13928,7.1e-4 -0.21021,0.007 -1.13518,0.10103 -1.75049,1.09446 -1.89328,2.4567 l 3.95863,-0.35226 c -0.0274,-1.23524 -0.82075,-2.09298 -1.85514,-2.11206 z m -17.34701,2.07155 c -1.31406,0.0259 -2.23784,1.13678 -2.39234,2.8833 -0.1648,1.86294 0.65856,3.16825 2.11398,3.29704 1.42631,0.1262 2.46634,-1.01417 2.63115,-2.87712 0.16479,-1.86296 -0.65907,-3.16796 -2.08538,-3.29416 -0.0909,-0.008 -0.17978,-0.0109 -0.26741,-0.009 z m -15.11862,2.34278 -2.27651,0.0963 c -0.90509,0.0384 -1.3834,0.4975 -1.34752,1.34417 0.0371,0.87589 0.58483,1.37946 1.51911,1.33989 0.84667,-0.0359 1.67523,-0.51025 2.16736,-1.32081 z m -38.94769,9.21378 c 2.65254,9.3e-4 5.29876,0.58516 7.28905,1.56821 l -1.89949,5.37288 c -2.18325,-0.91482 -5.48256,-1.82885 -7.2552,-1.64113 -0.75556,0.0801 -1.22532,0.36451 -1.16066,0.97476 0.24964,2.3574 9.0898,0.23418 11.08229,5.67032 -0.002,-0.12366 -0.004,-0.24737 -0.002,-0.37323 0.0863,-5.05471 3.53139,-8.24056 8.6737401,-8.15273 4.76536,0.0813 7.79796998,2.90564 8.30193998,7.39963 0.65731002,-3.71513 3.53007002,-6.17524 7.78335002,-6.44299 3.4705599,-0.21847 6.3478899,1.29878 7.8438699,4.13263 l -5.08069,2.54535 c -0.46888,-0.93673 -1.2040699,-1.44689 -2.1373299,-1.38803 -1.28323,0.0808 -2.02625,1.29876 -1.91426,3.07777 0.11383,1.80819 1.00423,2.9232 2.28747,2.84231 0.9332599,-0.0587 1.5704499,-0.62596 1.8451499,-1.8437 l 5.34809,2.07155 0.36513,-12.68482 6.57215,0.18875 -0.0668,2.33706 c 1.15795,-1.63298 2.87949,-2.54831 4.95343,-2.48864 l -0.13299,4.60881 c 1.3507,-2.10294 3.7299,-3.4086 6.8062,-3.58781 3.96915,-0.23116 6.87948,1.5314 8.22376,4.70128 l 0.0906,-3.86473 2.1912,0.051 0.10486,-4.46914 6.54403,0.15348 -0.10486,4.4696 3.73938,0.0877 -0.0501,2.14399 c 0.87862,-1.99697 3.10067,-3.31972 6.20132,-3.55681 2.53491,-0.19382 5.06282,0.28666 7.55454,1.44429 l -1.84656,4.21508 c -2.44921,-0.98503 -4.30025,-1.42962 -5.524,-1.33607 -0.55361,0.0423 -0.88767,0.27294 -0.86322,0.59343 0.11363,1.48601 8.34385,0.2705 8.75382,5.63172 0.25175,3.29245 -2.41175,5.63559 -6.81144,5.97204 -2.8119,0.215 -5.38274,-0.28598 -7.63892,-1.5048 l 0.17875,0.8065 c -1.06611,0.58879 -2.88671,0.92643 -4.58115,0.88658 -3.65243,-0.0565 -5.96876,-2.24508 -5.89054,-5.57546 l 0.1368,-5.8138 -2.06965,-0.0481 c 0.46798,1.21709 0.71636,2.62718 0.71452,4.20318 l -10.38494,0.60487 c 0.51065,1.22893 1.48148,1.81594 2.76509,1.74123 1.10856,-0.0646 2.217,-0.62695 3.15452,-1.61825 l 3.60877,3.15642 c -1.58327,1.96559 -3.9727,3.15841 -7.06502,3.33851 -5.45528,0.31775 -8.8804,-2.7025 -9.16755,-7.63272 -0.0855,-1.46865 0.12666,-2.7995 0.59391,-3.95768 -2.60185,-0.29162 -4.30172,0.70508 -4.35808,2.66166 l -0.21974,7.62413 -6.57215,-0.1897 0.0839,-2.92526 c -1.07483,2.71143 -3.69916,4.3971 -7.2061099,4.61787 -5.0492,0.31787 -8.53540002,-2.65157 -8.87584002,-7.53645 l -10.24957998,-0.1754 c 0.41682,1.26386 1.34081,1.92292 2.62638,1.94476 1.11029,0.019 2.25812,-0.45809 3.26749,-1.3761 l 3.36139998,3.41859 c -1.72655998,1.84098 -4.19911998,2.85034 -7.29619998,2.7975 -4.2965401,-0.0733 -7.1843901,-2.11126 -8.1818301,-5.37956 -0.13414,3.89463 -3.67196,6.00272 -7.9149,6.45203 -3.54528,0.37545 -7.62359,-0.39748 -10.54462,-2.17452 l 1.96383,-5.32138 c 2.27693,1.52198 6.03138,2.56461 8.09461,2.34609 0.98802,-0.1046 1.59316,-0.49184 1.51624,-1.21832 -0.28005,-2.64443 -10.64413,0.21615 -11.40117,-6.93252 -0.43084,-4.06834 2.72759,-6.98921 8.01643,-7.54931 0.6048,-0.064 1.21728,-0.0946 1.82941,-0.0944 z m 16.7111401,7.80288 c -1.13949,-0.0195 -1.85619,0.90412 -2.1421,2.24363 l 3.97342,0.0677 c 0.1101,-1.31331 -0.69183,-2.29184 -1.83132,-2.31131 z m 43.3148299,0.7555 c -0.0689,-0.004 -0.1391,-0.004 -0.21021,9.2e-4 -1.13773,0.0662 -1.78373,1.04084 -1.96812,2.39805 l 3.9677,-0.23117 c 0.0103,-1.23552 -0.75605,-2.11713 -1.78937,-2.16786 z m 16.42895,0.81843 -0.11344,4.82092 c -0.0199,0.84719 0.46413,1.38461 1.2536,1.37373 0.37977,0.009 1.02692,-0.15156 1.64591,-0.37086 l 0.68781,3.09876 1.4929,-3.78417 c 2.22725,1.14852 4.25997,1.66739 6.03734,1.53148 0.61188,-0.0468 0.97754,-0.25057 0.95522,-0.54196 -0.10695,-1.39857 -8.1605,-0.16747 -8.57269,-5.55782 -0.0124,-0.16639 -0.0161,-0.32907 -0.0152,-0.49049 z"
         style="color:#000000;font-style:normal;font-variant:normal;font-weight:900;font-stretch:normal;font-size:31.6809px;line-height:1.25;font-family:Montserrat;-inkscape-font-specification:'Montserrat, Heavy';font-variant-ligatures:normal;font-variant-position:normal;font-variant-caps:normal;font-variant-numeric:normal;font-variant-alternates:normal;font-feature-settings:normal;text-indent:0;text-align:start;text-decoration:none;text-decoration-line:none;text-decoration-style:solid;text-decoration-color:#000000;letter-spacing:0px;word-spacing:0px;text-transform:none;writing-mode:lr-tb;direction:ltr;text-orientation:mixed;dominant-baseline:auto;baseline-shift:baseline;text-anchor:start;white-space:normal;shape-padding:0;clip-rule:nonzero;display:inline;overflow:visible;visibility:visible;opacity:1;isolation:auto;mix-blend-mode:normal;color-interpolation:sRGB;color-interpolation-filters:linearRGB;solid-color:#000000;solid-opacity:1;vector-effect:none;fill:#ffffff;fill-opacity:1;fill-rule:nonzero;stroke:none;stroke-width:10.5738;stroke-linecap:butt;stroke-linejoin:miter;stroke-miterlimit:4;stroke-dasharray:none;stroke-dashoffset:0;stroke-opacity:1;color-rendering:auto;image-rendering:auto;shape-rendering:auto;text-rendering:auto;enable-background:accumulate" />
      <g
         aria-label="2D &amp; 3D SHADERS"
         id="text4497"
         style="font-weight:800;font-size:8.51027px;line-height:1.25;font-family:Montserrat;-inkscape-font-specification:'Montserrat, Ultra-Bold';letter-spacing:0px;word-spacing:0px;stroke-width:0.530776">
        <path
           d="m -17.357922,645.74421 v 1.33611 h -4.638097 v -1.05527 l 2.22969,-2.08502 q 0.323391,-0.30637 0.434024,-0.51912 0.110634,-0.22127 0.110634,-0.44254 0,-0.28935 -0.195737,-0.45104 -0.195736,-0.1617 -0.570188,-0.1617 -0.3319,0 -0.612739,0.15319 -0.272329,0.14467 -0.451044,0.42551 l -1.25101,-0.69784 q 0.348921,-0.5787 0.978681,-0.9106 0.62976,-0.3319 1.489297,-0.3319 0.680822,0 1.199948,0.22127 0.527637,0.22126 0.816986,0.63827 0.29786,0.40849 0.29786,0.95315 0,0.48508 -0.212757,0.91911 -0.204247,0.42551 -0.799965,0.97017 l -1.123356,1.03825 z"
           id="path1683" />
        <path
           d="m -16.557965,641.12313 h 2.816899 q 0.978681,0 1.736095,0.36594 0.757414,0.36595 1.174418,1.03826 0.417003,0.67231 0.417003,1.5744 0,0.90209 -0.417003,1.5744 -0.417004,0.67231 -1.174418,1.03825 -0.757414,0.36594 -1.736095,0.36594 h -2.816899 z m 2.748817,4.61257 q 0.765924,0 1.225479,-0.43402 0.468065,-0.43403 0.468065,-1.19995 0,-0.76593 -0.468065,-1.19995 -0.459555,-0.43402 -1.225479,-0.43402 h -1.063784 v 3.26794 z"
           id="path1685" />
        <path
           d="m -2.3373318,647.18245 -0.6723113,-0.59572 q -0.4170033,0.29786 -0.9276195,0.45955 -0.5106162,0.15319 -1.072294,0.15319 -0.6723114,0 -1.2169687,-0.21276 -0.5446572,-0.22127 -0.851027,-0.60423 -0.3063697,-0.38296 -0.3063697,-0.85954 0,-0.56167 0.2978595,-0.97868 0.2978594,-0.42551 0.9446399,-0.77443 -0.5701881,-0.5787 -0.5701881,-1.19995 0,-0.45105 0.2467979,-0.79997 0.2467978,-0.34892 0.6978421,-0.53614 0.4595546,-0.19574 1.0552735,-0.19574 0.8254962,0 1.3276022,0.39147 0.5106162,0.38297 0.5106162,1.03826 0,0.45955 -0.2723287,0.81698 -0.2638183,0.35743 -0.8340064,0.67231 l 0.8680475,0.77444 q 0.1702054,-0.37445 0.2638184,-0.85103 l 1.3020713,0.39147 q -0.1702054,0.76593 -0.5531675,1.35314 l 0.6297599,0.56167 z m -2.3743654,-5.08064 q -0.2467978,0 -0.3914724,0.12766 -0.1361643,0.11914 -0.1361643,0.31488 0,0.14467 0.076592,0.28084 0.085103,0.12765 0.3063697,0.34041 0.3404108,-0.17872 0.4765752,-0.3319 0.1446746,-0.1617 0.1446746,-0.3319 0,-0.18723 -0.1276541,-0.28935 -0.1191438,-0.11064 -0.3489207,-0.11064 z m -0.1787156,3.86367 q 0.4935956,0 0.9105989,-0.2468 l -1.2850508,-1.14038 q -0.2808389,0.17021 -0.408493,0.35743 -0.127654,0.17872 -0.127654,0.4085 0,0.27233 0.2467978,0.45104 0.2467978,0.17021 0.6638011,0.17021 z"
           id="path1687" />
        <path
           d="m 4.572985,643.50601 q 0.7403935,0.15318 1.131866,0.61274 0.3999826,0.45104 0.3999826,1.09782 0,0.52764 -0.2893491,0.97868 -0.280839,0.45105 -0.8680476,0.73189 -0.5786984,0.27233 -1.4382356,0.27233 -0.62976,0 -1.2510097,-0.15319 -0.6127395,-0.15318 -1.0637838,-0.43402 l 0.6127394,-1.26803 q 0.3489211,0.23828 0.7829449,0.36594 0.442534,0.12765 0.8680475,0.12765 0.4340238,0 0.6893319,-0.16169 0.2553081,-0.1617 0.2553081,-0.45956 0,-0.5787 -0.9105989,-0.5787 H 2.7858283 v -1.06378 L 3.8496121,642.4252 H 1.5007775 v -1.30207 h 4.3061967 v 1.05528 z"
           id="path1689" />
        <path
           d="m 6.9558492,641.12313 h 2.8168994 q 0.9786814,0 1.7360954,0.36594 0.757414,0.36595 1.174417,1.03826 0.417003,0.67231 0.417003,1.5744 0,0.90209 -0.417003,1.5744 -0.417003,0.67231 -1.174417,1.03825 -0.757414,0.36594 -1.7360954,0.36594 H 6.9558492 Z m 2.7488173,4.61257 q 0.7659245,0 1.2254785,-0.43402 0.468065,-0.43403 0.468065,-1.19995 0,-0.76593 -0.468065,-1.19995 -0.459554,-0.43402 -1.2254785,-0.43402 H 8.6408827 v 3.26794 z"
           id="path1691" />
        <path
           d="m 18.555319,647.19947 q -0.723373,0 -1.404195,-0.17872 -0.680821,-0.17872 -1.106335,-0.47657 l 0.553168,-1.2425 q 0.399983,0.26381 0.927619,0.42551 0.527637,0.16169 1.038253,0.16169 0.970171,0 0.970171,-0.48508 0,-0.25531 -0.280839,-0.37445 -0.272329,-0.12766 -0.885068,-0.26382 -0.672311,-0.14468 -1.123356,-0.30637 -0.451044,-0.17021 -0.774434,-0.53615 -0.32339,-0.36594 -0.32339,-0.98719 0,-0.54466 0.297859,-0.97868 0.297859,-0.44253 0.885068,-0.69784 0.595719,-0.25531 1.455256,-0.25531 0.587209,0 1.157397,0.13616 0.570188,0.12766 1.004212,0.38297 l -0.519127,1.25101 q -0.851027,-0.45956 -1.650992,-0.45956 -0.502106,0 -0.731883,0.15319 -0.229778,0.14467 -0.229778,0.38296 0,0.23829 0.272329,0.35743 0.272329,0.11914 0.876558,0.2468 0.680822,0.14467 1.123356,0.31488 0.451044,0.16169 0.774434,0.52763 0.331901,0.35744 0.331901,0.97869 0,0.53614 -0.29786,0.97017 -0.297859,0.43402 -0.893578,0.69784 -0.595719,0.25531 -1.446746,0.25531 z"
           id="path1693" />
        <path
           d="m 27.635774,641.12313 v 5.95719 h -1.685033 v -2.3233 h -2.297773 v 2.3233 h -1.685034 v -5.95719 h 1.685034 v 2.2382 h 2.297773 v -2.2382 z"
           id="path1695" />
        <path
           d="m 32.818527,645.92293 h -2.51904 l -0.468065,1.15739 h -1.719075 l 2.629674,-5.95719 h 1.659502 l 2.638184,5.95719 h -1.753115 z m -0.493596,-1.2425 -0.765924,-1.9063 -0.765925,1.9063 z"
           id="path1697" />
        <path
           d="m 35.516274,641.12313 h 2.816899 q 0.978681,0 1.736096,0.36594 0.757414,0.36595 1.174417,1.03826 0.417003,0.67231 0.417003,1.5744 0,0.90209 -0.417003,1.5744 -0.417003,0.67231 -1.174417,1.03825 -0.757415,0.36594 -1.736096,0.36594 h -2.816899 z m 2.748817,4.61257 q 0.765925,0 1.225479,-0.43402 0.468065,-0.43403 0.468065,-1.19995 0,-0.76593 -0.468065,-1.19995 -0.459554,-0.43402 -1.225479,-0.43402 h -1.063783 v 3.26794 z"
           id="path1699" />
        <path
           d="m 47.328518,645.77825 v 1.30207 h -4.782772 v -5.95719 h 4.672139 v 1.30207 h -3.004126 v 1.00422 h 2.646694 v 1.25952 h -2.646694 v 1.08931 z"
           id="path1701" />
        <path
           d="m 50.868776,645.49741 h -0.919109 v 1.58291 h -1.685033 v -5.95719 h 2.723286 q 0.808476,0 1.404195,0.27233 0.595719,0.26382 0.919109,0.76593 0.32339,0.49359 0.32339,1.1659 0,0.64678 -0.30637,1.13187 -0.297859,0.47657 -0.859537,0.7489 l 1.285051,1.87226 h -1.804177 z m 1.063784,-2.17012 q 0,-0.417 -0.263818,-0.64678 -0.263819,-0.22977 -0.782945,-0.22977 h -0.93613 v 1.7446 h 0.93613 q 0.519126,0 0.782945,-0.22127 0.263818,-0.22977 0.263818,-0.64678 z"
           id="path1703" />
        <path
           d="m 56.65576,647.19947 q -0.723373,0 -1.404195,-0.17872 -0.680821,-0.17872 -1.106335,-0.47657 l 0.553168,-1.2425 q 0.399983,0.26381 0.927619,0.42551 0.527637,0.16169 1.038253,0.16169 0.970171,0 0.970171,-0.48508 0,-0.25531 -0.280839,-0.37445 -0.272329,-0.12766 -0.885068,-0.26382 -0.672311,-0.14468 -1.123356,-0.30637 -0.451044,-0.17021 -0.774434,-0.53615 -0.32339,-0.36594 -0.32339,-0.98719 0,-0.54466 0.297859,-0.97868 0.297859,-0.44253 0.885068,-0.69784 0.595719,-0.25531 1.455256,-0.25531 0.587209,0 1.157397,0.13616 0.570188,0.12766 1.004212,0.38297 l -0.519127,1.25101 q -0.851027,-0.45956 -1.650992,-0.45956 -0.502106,0 -0.731883,0.15319 -0.229778,0.14467 -0.229778,0.38296 0,0.23829 0.272329,0.35743 0.272329,0.11914 0.876558,0.2468 0.680822,0.14467 1.123356,0.31488 0.451044,0.16169 0.774434,0.52763 0.331901,0.35744 0.331901,0.97869 0,0.53614 -0.29786,0.97017 -0.297859,0.43402 -0.893578,0.69784 -0.595719,0.25531 -1.446746,0.25531 z"
           id="path1705" />
      </g>
      <g
         aria-label="IN GODOT"
         id="text4501"
         style="font-weight:800;font-size:8.51027px;line-height:1.25;font-family:Montserrat;-inkscape-font-specification:'Montserrat, Ultra-Bold';letter-spacing:0px;word-spacing:0px;stroke-width:0.530776">
        <path
           d="m -3.5984196,709.26913 h 1.6850335 v 5.95719 h -1.6850335 z"
           id="path1726" />
        <path
           d="m 4.9543917,709.26913 v 5.95719 H 3.5672176 l -2.62967344,-3.17433 v 3.17433 h -1.6509924 v -5.95719 h 1.38717403 l 2.62967351,3.17433 v -3.17433 z"
           id="path1728" />
        <path
           d="m 12.613619,712.12007 h 1.489298 v 2.46798 q -0.510617,0.36594 -1.174418,0.56168 -0.663801,0.19573 -1.327602,0.19573 -0.93613,0 -1.6850334,-0.39147 -0.7489037,-0.39998 -1.1744172,-1.10634 -0.4255135,-0.70635 -0.4255135,-1.59993 0,-0.89357 0.4255135,-1.59993 0.4255135,-0.70635 1.1829275,-1.09782 0.7574141,-0.39998 1.7105641,-0.39998 0.834007,0 1.497808,0.28083 0.663801,0.28084 1.106335,0.80848 l -1.072294,0.97017 q -0.604229,-0.6638 -1.446746,-0.6638 -0.765924,0 -1.233989,0.46806 -0.468065,0.45956 -0.468065,1.23399 0,0.4936 0.212757,0.88507 0.212756,0.38296 0.595719,0.60423 0.382962,0.21276 0.876557,0.21276 0.485086,0 0.910599,-0.19574 z"
           id="path1730" />
        <path
           d="m 18.179324,715.34546 q -0.94464,0 -1.702054,-0.39998 -0.748903,-0.39998 -1.182927,-1.10634 -0.425514,-0.70635 -0.425514,-1.59142 0,-0.88506 0.425514,-1.59142 0.434024,-0.70635 1.182927,-1.10633 0.757414,-0.39998 1.702054,-0.39998 0.94464,0 1.693544,0.39998 0.757414,0.39998 1.182928,1.10633 0.434024,0.70636 0.434024,1.59142 0,0.88507 -0.434024,1.59142 -0.425514,0.70636 -1.182928,1.10634 -0.748904,0.39998 -1.693544,0.39998 z m 0,-1.39568 q 0.451045,0 0.816986,-0.21276 0.365942,-0.21276 0.578699,-0.59572 0.212756,-0.39147 0.212756,-0.89358 0,-0.5021 -0.212756,-0.88506 -0.212757,-0.39148 -0.578699,-0.60423 -0.365941,-0.21276 -0.816986,-0.21276 -0.451044,0 -0.816985,0.21276 -0.365942,0.21275 -0.578699,0.60423 -0.212757,0.38296 -0.212757,0.88506 0,0.50211 0.212757,0.89358 0.212757,0.38296 0.578699,0.59572 0.365941,0.21276 0.816985,0.21276 z"
           id="path1732" />
        <path
           d="m 22.374878,709.26913 h 2.816899 q 0.978681,0 1.736095,0.36594 0.757414,0.36594 1.174417,1.03825 0.417004,0.67232 0.417004,1.5744 0,0.90209 -0.417004,1.5744 -0.417003,0.67232 -1.174417,1.03826 -0.757414,0.36594 -1.736095,0.36594 h -2.816899 z m 2.748817,4.61257 q 0.765924,0 1.225479,-0.43403 0.468065,-0.43402 0.468065,-1.19995 0,-0.76592 -0.468065,-1.19994 -0.459555,-0.43403 -1.225479,-0.43403 h -1.063784 v 3.26795 z"
           id="path1734" />
        <path
           d="m 32.408471,715.34546 q -0.94464,0 -1.702054,-0.39998 -0.748903,-0.39998 -1.182927,-1.10634 -0.425514,-0.70635 -0.425514,-1.59142 0,-0.88506 0.425514,-1.59142 0.434024,-0.70635 1.182927,-1.10633 0.757414,-0.39998 1.702054,-0.39998 0.94464,0 1.693544,0.39998 0.757414,0.39998 1.182928,1.10633 0.434023,0.70636 0.434023,1.59142 0,0.88507 -0.434023,1.59142 -0.425514,0.70636 -1.182928,1.10634 -0.748904,0.39998 -1.693544,0.39998 z m 0,-1.39568 q 0.451045,0 0.816986,-0.21276 0.365942,-0.21276 0.578699,-0.59572 0.212756,-0.39147 0.212756,-0.89358 0,-0.5021 -0.212756,-0.88506 -0.212757,-0.39148 -0.578699,-0.60423 -0.365941,-0.21276 -0.816986,-0.21276 -0.451044,0 -0.816986,0.21276 -0.365941,0.21275 -0.578698,0.60423 -0.212757,0.38296 -0.212757,0.88506 0,0.50211 0.212757,0.89358 0.212757,0.38296 0.578698,0.59572 0.365942,0.21276 0.816986,0.21276 z"
           id="path1736" />
        <path
           d="m 37.786951,710.60524 h -1.829708 v -1.33611 h 5.335939 v 1.33611 h -1.821198 v 4.62108 h -1.685033 z"
           id="path1738" />
      </g>
      <path
         style="color:#000000;font-style:normal;font-variant:normal;font-weight:normal;font-stretch:normal;font-size:medium;line-height:normal;font-family:sans-serif;font-variant-ligatures:normal;font-variant-position:normal;font-variant-caps:normal;font-variant-numeric:normal;font-variant-alternates:normal;font-feature-settings:normal;text-indent:0;text-align:start;text-decoration:none;text-decoration-line:none;text-decoration-style:solid;text-decoration-color:#000000;letter-spacing:normal;word-spacing:normal;text-transform:none;writing-mode:lr-tb;direction:ltr;text-orientation:mixed;dominant-baseline:auto;baseline-shift:baseline;text-anchor:start;white-space:normal;shape-padding:0;clip-rule:nonzero;display:inline;overflow:visible;visibility:visible;opacity:1;isolation:auto;mix-blend-mode:normal;color-interpolation:sRGB;color-interpolation-filters:linearRGB;solid-color:#000000;solid-opacity:1;vector-effect:none;fill:#ffffff;fill-opacity:1;fill-rule:nonzero;stroke:none;stroke-width:2.27301;stroke-linecap:round;stroke-linejoin:miter;stroke-miterlimit:4;stroke-dasharray:none;stroke-dashoffset:0;stroke-opacity:1;marker:none;paint-order:normal;color-rendering:auto;image-rendering:auto;shape-rendering:auto;text-rendering:auto;enable-background:accumulate"
         d="m -48.332031,642.98047 v 70.62695 h 39.1113279 a 1.058595,1.058595 0 1 0 0,-2.11719 H -46.214844 v -66.39257 h 19.564453 a 1.058595,1.058595 0 1 0 0,-2.11719 z"
         id="path4503"
         inkscape:connector-curvature="0" />
      <path
         style="color:#000000;font-style:normal;font-variant:normal;font-weight:normal;font-stretch:normal;font-size:medium;line-height:normal;font-family:sans-serif;font-variant-ligatures:normal;font-variant-position:normal;font-variant-caps:normal;font-variant-numeric:normal;font-variant-alternates:normal;font-feature-settings:normal;text-indent:0;text-align:start;text-decoration:none;text-decoration-line:none;text-decoration-style:solid;text-decoration-color:#000000;letter-spacing:normal;word-spacing:normal;text-transform:none;writing-mode:lr-tb;direction:ltr;text-orientation:mixed;dominant-baseline:auto;baseline-shift:baseline;text-anchor:start;white-space:normal;shape-padding:0;clip-rule:nonzero;display:inline;overflow:visible;visibility:visible;opacity:1;isolation:auto;mix-blend-mode:normal;color-interpolation:sRGB;color-interpolation-filters:linearRGB;solid-color:#000000;solid-opacity:1;vector-effect:none;fill:#ffffff;fill-opacity:1;fill-rule:nonzero;stroke:none;stroke-width:2.27301;stroke-linecap:round;stroke-linejoin:miter;stroke-miterlimit:4;stroke-dasharray:none;stroke-dashoffset:0;stroke-opacity:1;marker:none;paint-order:normal;color-rendering:auto;image-rendering:auto;shape-rendering:auto;text-rendering:auto;enable-background:accumulate"
         d="m 62.222656,642.98047 a 1.058595,1.058595 0 1 0 0,2.11719 h 19.5625 v 66.39257 H 44.792969 a 1.058595,1.058595 0 1 0 0,2.11719 h 39.109375 v -70.62695 z"
         id="path4505"
         inkscape:connector-curvature="0" />
    </g>
  </g>
</svg>
