<?xml version="1.0" encoding="UTF-8" standalone="no"?>
<svg
   width="558"
   height="196.51071"
   viewBox="0 0 147.6375 51.993461"
   version="1.1"
   id="svg8"
   inkscape:version="1.1-beta1 (77e7b44, 2021-03-28)"
   sodipodi:docname="title.svg"
   xmlns:inkscape="http://www.inkscape.org/namespaces/inkscape"
   xmlns:sodipodi="http://sodipodi.sourceforge.net/DTD/sodipodi-0.dtd"
   xmlns="http://www.w3.org/2000/svg"
   xmlns:svg="http://www.w3.org/2000/svg"
   xmlns:rdf="http://www.w3.org/1999/02/22-rdf-syntax-ns#"
   xmlns:cc="http://creativecommons.org/ns#"
   xmlns:dc="http://purl.org/dc/elements/1.1/">
  <defs
     id="defs2" />
  <sodipodi:namedview
     id="base"
     pagecolor="#ffffff"
     bordercolor="#666666"
     borderopacity="1.0"
     inkscape:pageopacity="0.0"
     inkscape:pageshadow="2"
     inkscape:zoom="0.80833333"
     inkscape:cx="960"
     inkscape:cy="540"
     inkscape:document-units="mm"
     inkscape:current-layer="layer1"
     showgrid="true"
     units="px"
     inkscape:window-width="1920"
     inkscape:window-height="1012"
     inkscape:window-x="0"
     inkscape:window-y="32"
     inkscape:window-maximized="1"
     objecttolerance="10.0"
     gridtolerance="10.0"
     guidetolerance="10.0"
     inkscape:pagecheckerboard="1">
    <inkscape:grid
       type="xygrid"
       id="grid27"
       originy="-62.487743"
       spacingx="5.2916667"
       spacingy="5.2916667"
       originx="-204.69558" />
  </sodipodi:namedview>
  <metadata
     id="metadata5">
    <rdf:RDF>
      <cc:Work
         rdf:about="">
        <dc:format>image/svg+xml</dc:format>
        <dc:type
           rdf:resource="http://purl.org/dc/dcmitype/StillImage" />
      </cc:Work>
    </rdf:RDF>
  </metadata>
  <g
     inkscape:label="Layer 1"
     inkscape:groupmode="layer"
     id="layer1"
     transform="translate(-204.69558,-94.904383)">
    <g
       id="g6392"
       transform="matrix(0.26458333,0,0,0.26458333,101.2435,15.73595)">
      <g
         id="text6388"
         class="cls-36">
        <g
           aria-label="GODOT"
           transform="translate(595.13,327.92)"
           id="text2553"
           class="cls-37"
           style="font-weight:700;font-size:40.31px;font-family:Montserrat-ExtraBold, Montserrat;fill:#ffffff">
          <path
             d="m 22.412361,-14.55191 h 5.96588 v 11.4480399 q -2.29767,1.7333301 -5.32092,2.66046008 -3.02325,0.92713004 -6.08681,0.92713004 -4.393791,0 -7.9007607,-1.85426002 -3.5069701,-1.8945701 -5.5224702,-5.1999902 -1.97519,-3.3457301 -1.97519,-7.5379698 0,-4.192241 1.97519,-7.497661 2.0155001,-3.34573 5.5627802,-5.19999 3.5472797,-1.89457 7.9813807,-1.89457 3.70852,0 6.73177,1.24961 3.02325,1.24961 5.07906,3.6279 l -4.19224,3.86976 q -3.02325,-3.18449 -7.29611,-3.18449 -2.70077,0 -4.796891,1.12868 -2.09612,1.12868 -3.2651097,3.18449 -1.16899,2.05581 -1.16899,4.716271 0,2.62015 1.16899,4.6759597 1.1689897,2.05581 3.2247997,3.2248001 2.09612,1.12868 4.756581,1.12868 2.8217,0 5.07906,-1.2093 z"
             style="font-weight:700;font-size:40.31px;font-family:Montserrat-ExtraBold, Montserrat;fill:#ffffff"
             id="path2874" />
          <path
             d="m 48.089829,0.48372002 q -4.39379,0 -7.941071,-1.89457002 -3.50697,-1.8945701 -5.52247,-5.1999902 -1.97519,-3.3457301 -1.97519,-7.4976598 0,-4.151931 1.97519,-7.457351 2.0155,-3.34573 5.52247,-5.2403 3.547281,-1.89457 7.941071,-1.89457 4.39379,0 7.90076,1.89457 3.50697,1.89457 5.52247,5.2403 2.0155,3.30542 2.0155,7.457351 0,4.1519297 -2.0155,7.4976598 -2.0155,3.3054201 -5.52247,5.1999902 -3.50697,1.89457002 -7.90076,1.89457002 z m 0,-5.56278022 q 2.49922,0 4.51472,-1.12868 2.0155,-1.1689901 3.14418,-3.2248001 1.16899,-2.0558097 1.16899,-4.6759597 0,-2.620151 -1.16899,-4.675961 -1.12868,-2.05581 -3.14418,-3.18449 -2.0155,-1.16899 -4.51472,-1.16899 -2.49922,0 -4.51472,1.16899 -2.015501,1.12868 -3.184491,3.18449 -1.12868,2.05581 -1.12868,4.675961 0,2.62015 1.12868,4.6759597 1.16899,2.05581 3.184491,3.2248001 2.0155,1.12868 4.51472,1.12868 z"
             style="font-weight:700;font-size:40.31px;font-family:Montserrat-ExtraBold, Montserrat;fill:#ffffff"
             id="path2876" />
          <path
             d="m 68.446377,-28.217001 h 12.818581 q 4.59534,0 8.10231,1.77364 3.54728,1.73333 5.48216,4.91782 1.97519,3.18449 1.97519,7.417041 0,4.2325497 -1.97519,7.4170398 -1.93488,3.1844901 -5.48216,4.9581301 Q 85.860298,0 81.264958,0 H 68.446377 Z m 12.496101,22.8557708 q 4.23255,0 6.73177,-2.3379801 2.53953,-2.3782897 2.53953,-6.4092897 0,-4.031001 -2.53953,-6.368981 -2.49922,-2.37829 -6.73177,-2.37829 h -5.965881 v 17.4945408 z"
             style="font-weight:700;font-size:40.31px;font-family:Montserrat-ExtraBold, Montserrat;fill:#ffffff"
             id="path2878" />
          <path
             d="m 115.44082,0.48372002 q -4.39379,0 -7.94107,-1.89457002 -3.50697,-1.8945701 -5.52247,-5.1999902 -1.97519,-3.3457301 -1.97519,-7.4976598 0,-4.151931 1.97519,-7.457351 2.0155,-3.34573 5.52247,-5.2403 3.54728,-1.89457 7.94107,-1.89457 4.39379,0 7.90076,1.89457 3.50697,1.89457 5.52247,5.2403 2.0155,3.30542 2.0155,7.457351 0,4.1519297 -2.0155,7.4976598 -2.0155,3.3054201 -5.52247,5.1999902 -3.50697,1.89457002 -7.90076,1.89457002 z m 0,-5.56278022 q 2.49922,0 4.51472,-1.12868 2.0155,-1.1689901 3.14418,-3.2248001 1.16899,-2.0558097 1.16899,-4.6759597 0,-2.620151 -1.16899,-4.675961 -1.12868,-2.05581 -3.14418,-3.18449 -2.0155,-1.16899 -4.51472,-1.16899 -2.49922,0 -4.51472,1.16899 -2.0155,1.12868 -3.18449,3.18449 -1.12868,2.05581 -1.12868,4.675961 0,2.62015 1.12868,4.6759597 1.16899,2.05581 3.18449,3.2248001 2.0155,1.12868 4.51472,1.12868 z"
             style="letter-spacing:-0.01em"
             id="path2880" />
          <path
             d="m 141.31068,-22.896081 h -9.02944 v -5.32092 h 24.5891 v 5.32092 H 147.8409 V 0 h -6.53022 z"
             id="path2882" />
        </g>
      </g>
      <path
         id="path6390"
         class="cls-1"
         d="M 391,308.21 V 495.73 H 949 V 308.21 H 765.5 a 3.55,3.55 0 1 0 -0.11,7.09 H 941.92 V 488.64 H 398.07 V 315.3 H 574.5 a 3.55,3.55 0 1 0 0.11,-7.09 H 391 Z"
         style="fill:#4b5bab;fill-opacity:1" />
    </g>
    <path
       class="cls-1"
       d="m 289.90993,111.82997 -2.43416,-0.17198 -0.52917,7.46919 2.43417,0.17198 c 1.16681,0.082 2.11666,-0.18257 2.88131,-0.79375 0.76465,-0.61119 1.16946,-1.50019 1.25412,-2.667 0.0847,-1.16682 -0.20637,-2.11667 -0.86783,-2.81782 -0.66146,-0.70114 -1.57162,-1.1086 -2.73844,-1.19062 z"
       id="path2574"
       style="fill:#ffffff;stroke-width:0.264583" />
    <path
       class="cls-1"
       d="m 275.95316,119.02928 a 3.5004375,3.5004375 0 0 0 1.32292,-1.37583 4.4979166,4.4979166 0 0 0 0,-4.07458 3.5004375,3.5004375 0 0 0 -1.32292,-1.37584 3.84175,3.84175 0 0 0 -3.74385,0 3.5110208,3.5110208 0 0 0 -1.32292,1.37584 4.4979166,4.4979166 0 0 0 0,4.07458 3.5110208,3.5110208 0 0 0 1.32292,1.37583 3.84175,3.84175 0 0 0 3.74385,0 z"
       id="path2576"
       style="fill:#ffffff;stroke-width:0.264583" />
    <polygon
       class="cls-1"
       points="771.39,442.57 783.71,442.57 777.55,427.24 "
       id="polygon2578"
       transform="matrix(0.26458333,0,0,0.26458333,101.2435,15.73595)"
       style="fill:#ffffff" />
    <path
       class="cls-1"
       d="m 338.97427,133.64222 c -0.10848,-1.92617 -0.92605,-3.11415 -1.5875,-3.77296 l -0.0529,-0.0476 -0.0529,-0.0503 -0.0582,-0.0556 -0.1561,-0.15081 -0.15346,-0.14817 0.0714,-0.20108 0.0714,-0.20108 0.79375,-2.29923 0.75671,-2.16165 -2.0373,-1.05833 a 10.022417,10.022417 0 0 0 -2.93687,-0.9525 13.477875,13.477875 0 0 0 -2.29658,-0.20108 c -0.23813,0 -0.48419,0 -0.78053,0.0212 a 10.363729,10.363729 0 0 0 -4.07722,0.99219 6.8500624,6.8500624 0 0 0 -2.88661,2.57969 6.3499999,6.3499999 0 0 0 -0.69321,1.64041 l -0.64823,2.48709 -0.64558,2.48708 v -9.59115 h -8.94292 v -6.13304 h -0.58208 v -10.668 h -15.97022 v 1.75154 l -0.48154,-0.25135 -0.4789,-0.25135 a 11.90625,11.90625 0 0 0 -4.68312,-1.26736 l -6.43467,-0.4445 -2.62996,-0.18785 -0.12435,1.75154 -0.0423,0.58208 -0.0423,0.57944 -0.47625,-0.33337 -0.47625,-0.33603 a 9.9483332,9.9483332 0 0 0 -1.02923,-0.635 11.337396,11.337396 0 0 0 -10.2526,0 c -0.26458,0.14817 -0.55298,0.31221 -0.80963,0.48419 l -0.48154,0.31486 -0.48683,0.32543 -0.0238,-0.58473 -0.0212,-0.58737 -0.0503,-1.25942 -2.62996,0.10054 -3.78354,0.14817 -2.6326,0.10583 0.0344,0.76994 0.0344,0.91281 0.037,0.91017 -0.61648,-0.67998 -0.61119,-0.67733 -0.20637,-0.23019 -0.8255,-0.92339 -1.2409,0.0476 -3.175,0.12435 -2.6326,0.10319 0.10583,2.62996 0.52917,13.46994 v 0.24077 0.23812 l -0.45244,0.16669 a 7.3157291,7.3157291 0 0 0 -0.93133,0.42069 l -0.24342,0.12964 -0.15081,0.0873 -0.15346,0.0847 -0.15346,-0.0767 -0.1561,-0.0741 a 10.707687,10.707687 0 0 0 -2.06904,-0.75142 13.49375,13.49375 0 0 0 -3.048,-0.41539 h -0.30428 a 10.218208,10.218208 0 0 0 -3.63008,0.6006 l -0.4101,0.15082 -0.41275,0.1561 -0.0318,-0.44185 -0.0344,-0.44186 -0.0212,-0.29369 -2.62466,0.19315 -9.91659,0.71437 -2.62466,0.1905 0.18785,2.62467 0.92604,12.64444 0.19315,2.62467 2.62202,-0.1905 10.14942,-0.74613 0.77787,-0.0556 h 0.127 l 0.11906,0.0397 0.10584,0.0317 0.29104,0.0847 a 14.343062,14.343062 0 0 0 3.64596,0.54504 h 0.28575 a 10.133542,10.133542 0 0 0 3.86291,-0.68791 c 0.29105,-0.12171 0.50536,-0.2249 0.69586,-0.32279 l 0.14287,-0.0794 0.14817,-0.0794 0.15081,0.0741 0.15082,0.0714 a 11.027833,11.027833 0 0 0 2.52412,0.79375 14.605,14.605 0 0 0 2.71463,0.26458 c 0.34925,0 0.67468,0 0.96043,-0.0344 a 10.583333,10.583333 0 0 0 3.59834,-0.81491 l 0.0741,-0.0344 0.0767,-0.0317 h 0.0794 0.0847 l 1.64835,0.14288 9.60438,0.84402 0.2831,0.0265 0.26459,0.0265 v 0.0688 l 0.44185,-0.0265 h 0.0979 l 2.0611,0.18785 v -0.0291 l 0.0265,-0.28311 0.56621,-0.0344 2.9501,-0.16669 3.28613,-0.1905 0.7567,-0.0423 1.54253,-0.09 2.44739,-0.14288 0.69586,-0.037 v 0.0503 l 2.64583,0.0265 3.5851,0.0397 2.62732,0.0265 v -0.14288 h 0.33602 0.33602 l 1.61131,0.037 0.48683,0.0132 0.47625,0.0132 v 0.0212 h 1.09538 l 1.73302,0.0397 2.64583,0.0582 v -0.0979 h 4.02696 l 0.66675,-1.64571 0.16404,-0.40746 0.0847,-0.20902 0.0873,-0.20108 h 1.80446 l 0.16404,0.41539 0.1614,0.40482 0.66146,1.64306 h 3.89202 v 0.32808 h 14.90133 V 140.622 l 0.37042,0.0503 0.37306,0.0476 a 14.885458,14.885458 0 0 0 1.87589,0.12171 c 0.24342,0 0.52917,0 0.83873,-0.0265 a 10.31875,10.31875 0 0 0 4.08252,-0.98954 6.9506041,6.9506041 0 0 0 2.87867,-2.56646 6.1700833,6.1700833 0 0 0 0.89165,-3.61685 z m -40.23254,-24.85231 h 10.70768 v 2.98979 h -6.87916 v 2.30187 h 6.06425 v 2.88661 h -6.06955 v 2.48444 h 7.14375 v 2.98979 h -10.96697 z m -72.90859,29.77356 -0.91016,-12.64444 9.91658,-0.71437 0.19844,2.76225 -6.37646,0.46037 0.15346,2.1299 5.6171,-0.40481 0.19315,2.67493 -5.61711,0.40482 0.16669,2.31245 6.61458,-0.47889 0.19844,2.76489 z m 20.48669,-2.02406 a 4.3179999,4.3179999 0 0 1 -1.93675,1.43404 7.6729166,7.6729166 0 0 1 -3.08769,0.48948 11.6205,11.6205 0 0 1 -2.97921,-0.4445 7.3607082,7.3607082 0 0 1 -2.33362,-1.05834 l 1.23296,-2.61937 a 8.0459791,8.0459791 0 0 0 4.1566,1.33615 c 1.37584,0.0291 2.06904,-0.30163 2.08492,-0.98955 a 0.85195832,0.85195832 0 0 0 -0.5715,-0.81756 10.916708,10.916708 0 0 0 -1.88119,-0.59267 18.034,18.034 0 0 1 -2.38125,-0.70908 4.0163749,4.0163749 0 0 1 -1.62454,-1.16681 3.0612291,3.0612291 0 0 1 -0.64294,-2.11667 3.6327291,3.6327291 0 0 1 0.67734,-2.07962 4.2333333,4.2333333 0 0 1 1.92352,-1.43404 7.7813957,7.7813957 0 0 1 3.09827,-0.4789 10.821458,10.821458 0 0 1 2.45533,0.33073 7.6067707,7.6067707 0 0 1 2.11667,0.87048 l -1.15888,2.64583 a 7.3765832,7.3765832 0 0 0 -3.4925,-1.05833 q -1.05833,-0.0238 -1.56369,0.2831 a 0.94456249,0.94456249 0 0 0 -0.50535,0.81227 0.81227082,0.81227082 0 0 0 0.56092,0.77259 10.681229,10.681229 0 0 0 1.85208,0.5662 17.409583,17.409583 0 0 1 2.38125,0.70909 4.1301458,4.1301458 0 0 1 1.6219,1.15887 2.9924375,2.9924375 0 0 1 0.65352,2.11667 3.5798125,3.5798125 0 0 1 -0.65617,2.03994 z m 11.22892,-0.41804 a 4.3444583,4.3444583 0 0 1 -1.80182,1.5875 7.6464582,7.6464582 0 0 1 -3.03741,0.75141 11.728979,11.728979 0 0 1 -3.00567,-0.18256 7.3395416,7.3395416 0 0 1 -2.41035,-0.8599 l 1.00277,-2.71462 a 7.6199999,7.6199999 0 0 0 2.02935,0.77523 7.5035832,7.5035832 0 0 0 2.22779,0.19844 q 2.05846,-0.13494 1.99232,-1.16417 a 0.85989582,0.85989582 0 0 0 -0.63765,-0.77258 10.82675,10.82675 0 0 0 -1.92617,-0.42598 18.102791,18.102791 0 0 1 -2.42623,-0.50536 4.0190208,4.0190208 0 0 1 -1.71979,-1.02129 3.0559375,3.0559375 0 0 1 -0.82285,-2.05052 3.6247916,3.6247916 0 0 1 0.49742,-2.1299 4.2333333,4.2333333 0 0 1 1.79122,-1.5875 7.7893332,7.7893332 0 0 1 3.03742,-0.74612 11.08075,11.08075 0 0 1 2.4765,0.11906 7.6147082,7.6147082 0 0 1 2.18546,0.68263 l -0.92869,2.7305 a 7.3527707,7.3527707 0 0 0 -3.56923,-0.74877 q -1.05833,0.0714 -1.53458,0.41804 a 0.95779165,0.95779165 0 0 0 -0.43392,0.8546 0.82020832,0.82020832 0 0 0 0.62707,0.72231 10.511896,10.511896 0 0 0 1.89706,0.40217 17.340791,17.340791 0 0 1 2.43681,0.50271 4.1380833,4.1380833 0 0 1 1.71715,1.01335 3.000375,3.000375 0 0 1 0.83343,2.03994 3.571875,3.571875 0 0 1 -0.49741,2.11138 z m -1.94734,-20.83859 0.28575,7.26811 -3.78089,0.14816 -0.52917,-13.64191 3.175,-0.12436 6.29973,7.02469 -0.28575,-7.2681 3.7809,-0.14817 0.52916,13.64192 -3.175,0.12435 z m 13.843,13.46994 -6.36852,-0.56885 -0.18521,2.11666 5.60917,0.49477 -0.23548,2.68023 -5.60917,-0.49477 -0.20372,2.30981 6.61458,0.57944 -0.24342,2.75961 -10.15206,-0.88636 1.1086,-12.62856 9.90336,0.87048 z m -1.96321,-9.48002 a 6.9849999,6.9849999 0 0 1 2.70934,-9.83192 8.7312499,8.7312499 0 0 1 7.78139,0 6.9797082,6.9797082 0 0 1 0,12.36663 8.7312499,8.7312499 0 0 1 -7.78139,0 6.8923957,6.8923957 0 0 1 -2.70934,-2.54265 z m 26.23344,8.90058 -3.87614,-0.0397 -0.10319,9.83192 -3.58511,-0.0397 0.10319,-9.83191 -3.683,-0.0397 0.56356,9.81075 -2.94745,0.16933 -5.9743,-6.42408 0.38894,6.74423 -3.50837,0.20108 -0.72761,-12.65502 2.94746,-0.16933 5.97429,6.42144 -0.38629,-6.74159 3.50573,-0.20108 v 0 l 11.34004,0.12171 z m -0.37041,-6.33941 a 9.0222916,9.0222916 0 0 1 -4.02696,0.55562 l -6.43996,-0.45508 0.96573,-13.61811 6.43996,0.45509 a 9.0619791,9.0619791 0 0 1 3.90789,1.11654 6.3341249,6.3341249 0 0 1 2.51619,2.56381 7.2866249,7.2866249 0 0 1 -0.51065,7.19931 6.3156041,6.3156041 0 0 1 -2.8522,2.18282 z m 5.11439,16.13958 -3.5851,-0.082 0.28839,-12.67354 3.58511,0.082 z m 12.18671,-0.0397 -0.99483,-2.46327 h -5.36046 l -0.99748,2.46327 h -3.65654 l 5.60123,-12.66031 h 3.52954 l 5.61446,12.67619 z m 14.3801,0.32808 h -9.63612 v -12.67089 h 3.5851 v 9.83456 h 6.05102 z m 10.80294,-2.38125 a 4.2994791,4.2994791 0 0 1 -1.8124,1.5875 7.6729166,7.6729166 0 0 1 -3.0427,0.72496 11.71575,11.71575 0 0 1 -3.00567,-0.20902 7.3818749,7.3818749 0 0 1 -2.40771,-0.87841 l 1.02659,-2.70669 a 8.0459791,8.0459791 0 0 0 4.23333,1.01071 q 2.05846,-0.11907 2.00289,-1.1483 a 0.85195832,0.85195832 0 0 0 -0.635,-0.76993 10.63625,10.63625 0 0 0 -1.92087,-0.4445 18.142479,18.142479 0 0 1 -2.42358,-0.52917 4.0216666,4.0216666 0 0 1 -1.70921,-1.03452 3.0532916,3.0532916 0 0 1 -0.79375,-2.05846 3.6300833,3.6300833 0 0 1 0.51329,-2.11667 4.2518541,4.2518541 0 0 1 1.80446,-1.5875 7.8237291,7.8237291 0 0 1 3.05593,-0.71172 10.903479,10.903479 0 0 1 2.47386,0.14022 7.5617916,7.5617916 0 0 1 2.18017,0.7038 l -0.9525,2.71991 a 7.3871666,7.3871666 0 0 0 -3.5613,-0.77787 q -1.05833,0.0609 -1.53723,0.40481 a 0.94985415,0.94985415 0 0 0 -0.44185,0.84931 0.81491666,0.81491666 0 0 0 0.62177,0.72761 10.6045,10.6045 0 0 0 1.89177,0.41804 17.742958,17.742958 0 0 1 2.43417,0.52917 4.1460208,4.1460208 0 0 1 1.70921,1.02922 2.9950833,2.9950833 0 0 1 0.81227,2.04788 3.5321875,3.5321875 0 0 1 -0.51594,2.08492 z"
       id="path2580"
       style="fill:#ffffff;stroke-width:0.264583" />
  </g>
</svg>
