# This file uses centimeters as units for non-parametric coordinates.

v -0.375000 -0.378000 0.500000
v 0.375000 -0.378000 0.500000
v 0.500000 -0.378000 0.375000
v 0.500000 -0.378000 -0.375000
v -0.375000 0.378000 0.500000
v 0.500000 0.378000 -0.375000
v -0.500000 0.500000 0.500000
v 0.500000 0.500000 0.500000
v 0.500000 0.500000 -0.500000
v -0.500000 0.500000 -0.500000
v 0.375000 0.378000 0.500000
v 0.500000 0.378000 0.375000
v -0.500000 -0.500000 0.500000
v 0.500000 -0.500000 0.500000
v 0.500000 -0.500000 -0.500000
v -0.375000 0.378000 -0.500000
v 0.375000 0.378000 -0.500000
v -0.500000 0.378000 0.375000
v -0.500000 0.378000 -0.375000
v 0.375000 -0.378000 -0.500000
v -0.500000 -0.378000 0.375000
v -0.500000 -0.500000 -0.500000
v -0.375000 -0.378000 -0.500000
v -0.500000 -0.378000 -0.375000
vt 0.395423 0.304022
vt 0.432701 0.340405
vt 0.432701 0.565863
vt 0.395423 0.602247
vt 0.693648 0.304022
vt 0.656370 0.340405
vt 0.656370 0.565863
vt 0.693648 0.602247
vt 0.001992 0.904463
vt 0.039270 0.868080
vt 0.262939 0.868080
vt 0.300217 0.904463
vt 0.001992 0.606238
vt 0.039270 0.642622
vt 0.262939 0.642622
vt 0.300217 0.606238
vt 0.614158 0.001805
vt 0.912383 0.001805
vt 0.912383 0.300030
vt 0.614158 0.300030
vt 0.091063 0.304022
vt 0.389288 0.304022
vt 0.389288 0.602247
vt 0.091063 0.602247
vt 0.960730 0.565863
vt 0.960730 0.340405
vt 0.998008 0.304022
vt 0.998008 0.602247
vt 0.737061 0.340405
vt 0.699783 0.304022
vt 0.699783 0.602247
vt 0.737061 0.565863
vt 0.308172 0.606238
vt 0.606397 0.606238
vt 0.569119 0.642622
vt 0.345451 0.642622
vt 0.606397 0.904463
vt 0.569119 0.868080
vt 0.345451 0.868080
vt 0.308172 0.904463
vn 0.000000 1.000000 0.000000
vn 0.000000 1.000000 0.000000
vn 0.000000 1.000000 0.000000
vn 0.000000 1.000000 0.000000
vn 0.000000 0.000000 1.000000
vn 0.000000 0.000000 1.000000
vn 0.000000 0.000000 1.000000
vn 0.000000 0.000000 1.000000
vn 1.000000 0.000000 0.000000
vn 1.000000 0.000000 0.000000
vn 1.000000 0.000000 0.000000
vn 1.000000 0.000000 0.000000
vn 0.000000 0.000000 1.000000
vn 0.000000 0.000000 1.000000
vn 1.000000 0.000000 0.000000
vn 1.000000 0.000000 0.000000
vn 1.000000 0.000000 0.000000
vn 1.000000 0.000000 0.000000
vn 0.000000 -1.000000 0.000000
vn 0.000000 -1.000000 0.000000
vn 0.000000 -1.000000 0.000000
vn 0.000000 -1.000000 0.000000
vn -1.000000 0.000000 0.000000
vn -1.000000 0.000000 0.000000
vn -1.000000 0.000000 0.000000
vn -1.000000 0.000000 0.000000
vn 0.000000 0.000000 -1.000000
vn -0.000000 0.000000 -1.000000
vn -0.000000 0.000000 -1.000000
vn 0.000000 0.000000 -1.000000
vn -1.000000 0.000000 0.000000
vn -1.000000 0.000000 0.000000
vn -0.000000 0.000000 -1.000000
vn -0.000000 0.000000 -1.000000
vn 0.000000 0.000000 -1.000000
vn 0.000000 0.000000 -1.000000
vn 0.000000 0.000000 1.000000
vn 0.000000 0.000000 1.000000
vn -1.000000 0.000000 0.000000
vn -1.000000 0.000000 0.000000
vn 0.000000 0.000000 1.000000
vn 0.000000 0.000000 1.000000
vn 0.000000 0.000000 1.000000
vn 0.000000 0.000000 1.000000
vn 1.000000 0.000000 0.000000
vn 1.000000 0.000000 0.000000
vn 1.000000 0.000000 0.000000
vn 1.000000 0.000000 0.000000
vn 0.000000 0.000000 -1.000000
vn 0.000000 0.000000 -1.000000
vn 0.000000 0.000000 -1.000000
vn 0.000000 0.000000 -1.000000
vn -1.000000 0.000000 0.000000
vn -1.000000 0.000000 0.000000
vn -1.000000 0.000000 0.000000
vn -1.000000 0.000000 0.000000
f 7/17/1 8/18/2 9/19/3 10/20/4
f 11/25/5 2/26/6 14/27/7 8/28/8
f 14/1/9 3/2/10 12/3/11 8/4/12
f 7/31/13 5/32/14 11/25/5 8/28/8
f 9/8/15 6/7/16 4/6/17 15/5/18
f 22/21/19 15/22/20 14/23/21 13/24/22
f 10/9/23 19/10/24 18/11/25 7/12/26
f 10/33/27 9/34/28 17/35/29 16/36/30
f 18/11/25 21/15/31 13/16/32 7/12/26
f 20/38/33 15/37/34 22/40/35 23/39/36
f 14/27/7 2/26/6 1/29/37 13/30/38
f 14/1/9 15/5/18 4/6/17 3/2/10
f 13/16/32 21/15/31 24/14/39 22/13/40
f 9/34/28 15/37/34 20/38/33 17/35/29
f 12/3/11 6/7/16 9/8/15 8/4/12
f 10/33/27 16/36/30 23/39/36 22/40/35
f 22/13/40 24/14/39 19/10/24 10/9/23
f 13/30/38 1/29/37 5/32/14 7/31/13
f 2/26/41 11/25/42 5/32/43 1/29/44
f 4/6/45 6/7/46 12/3/47 3/2/48
f 17/35/49 20/38/50 23/39/51 16/36/52
f 19/10/53 24/14/54 21/15/55 18/11/56
