# This file uses centimeters as units for non-parametric coordinates.

v -0.375000 -0.378000 0.375000
v -0.375000 -0.378000 0.500000
v 0.375000 -0.378000 0.500000
v 0.375000 -0.378000 0.375000
v 0.375000 -0.378000 -0.375000
v 0.500000 -0.378000 0.375000
v 0.500000 -0.378000 -0.375000
v -0.375000 0.378000 0.375000
v -0.375000 0.378000 0.500000
v 0.500000 0.378000 -0.375000
v 0.375000 0.378000 -0.375000
v -0.375000 0.378000 -0.375000
v 0.375000 0.378000 0.375000
v -0.500000 0.500000 0.500000
v 0.500000 0.500000 0.500000
v 0.500000 0.500000 -0.500000
v -0.500000 0.500000 -0.500000
v 0.375000 0.378000 0.500000
v 0.500000 0.378000 0.375000
v -0.500000 -0.500000 0.500000
v 0.500000 -0.500000 0.500000
v 0.500000 -0.500000 -0.500000
v -0.375000 0.378000 -0.500000
v 0.375000 0.378000 -0.500000
v -0.500000 0.378000 0.375000
v -0.500000 0.378000 -0.375000
v 0.375000 -0.378000 -0.500000
v -0.500000 -0.378000 0.375000
v -0.375000 -0.378000 -0.375000
v -0.500000 -0.500000 -0.500000
v -0.375000 -0.378000 -0.500000
v -0.500000 -0.378000 -0.375000
vt 0.651436 0.831696
vt 0.614158 0.831696
vt 0.614158 0.606238
vt 0.651436 0.606238
vt 0.741088 0.606238
vt 0.741088 0.831696
vt 0.703810 0.831696
vt 0.703810 0.606238
vt 0.395423 0.304022
vt 0.432701 0.340405
vt 0.432701 0.565863
vt 0.395423 0.602247
vt 0.693648 0.304022
vt 0.656370 0.340405
vt 0.656370 0.565863
vt 0.693648 0.602247
vt 0.830740 0.831696
vt 0.793462 0.831696
vt 0.793462 0.606238
vt 0.830740 0.606238
vt 0.920391 0.606238
vt 0.920391 0.831696
vt 0.883113 0.831696
vt 0.883113 0.606238
vt 0.001992 0.904463
vt 0.039270 0.868080
vt 0.262939 0.868080
vt 0.300217 0.904463
vt 0.001992 0.606238
vt 0.039270 0.642622
vt 0.262939 0.642622
vt 0.300217 0.606238
vt 0.039270 0.039083
vt 0.039270 0.001805
vt 0.262939 0.001805
vt 0.262939 0.039083
vt 0.039270 0.262752
vt 0.262939 0.262752
vt 0.001992 0.262752
vt 0.001992 0.039083
vt 0.300217 0.039083
vt 0.300217 0.262752
vt 0.262939 0.300030
vt 0.039270 0.300030
vt 0.345451 0.262752
vt 0.345451 0.039083
vt 0.569119 0.039083
vt 0.569119 0.262752
vt 0.308172 0.262752
vt 0.308172 0.039083
vt 0.345451 0.001805
vt 0.569119 0.001805
vt 0.606397 0.039083
vt 0.606397 0.262752
vt 0.569119 0.300030
vt 0.345451 0.300030
vt 0.614158 0.001805
vt 0.912383 0.001805
vt 0.912383 0.300030
vt 0.614158 0.300030
vt 0.091063 0.304022
vt 0.389288 0.304022
vt 0.389288 0.602247
vt 0.091063 0.602247
vt 0.696262 0.606238
vt 0.696262 0.831696
vt 0.658984 0.831696
vt 0.658984 0.606238
vt 0.748636 0.831696
vt 0.748636 0.606238
vt 0.785914 0.606238
vt 0.785914 0.831696
vt 0.960730 0.565863
vt 0.960730 0.340405
vt 0.998008 0.304022
vt 0.998008 0.602247
vt 0.737061 0.340405
vt 0.699783 0.304022
vt 0.699783 0.602247
vt 0.737061 0.565863
vt 0.838287 0.831696
vt 0.838287 0.606238
vt 0.875566 0.606238
vt 0.875566 0.831696
vt 0.965217 0.606238
vt 0.965217 0.831696
vt 0.927939 0.831696
vt 0.927939 0.606238
vt 0.308172 0.606238
vt 0.606397 0.606238
vt 0.569119 0.642622
vt 0.345451 0.642622
vt 0.606397 0.904463
vt 0.569119 0.868080
vt 0.345451 0.868080
vt 0.308172 0.904463
vn 0.000000 1.000000 0.000000
vn 0.000000 1.000000 0.000000
vn 0.000000 1.000000 0.000000
vn 0.000000 1.000000 0.000000
vn 0.000000 1.000000 0.000000
vn 0.000000 1.000000 0.000000
vn 0.000000 1.000000 0.000000
vn 1.000000 0.000000 0.000000
vn 1.000000 0.000000 0.000000
vn 1.000000 0.000000 0.000000
vn 1.000000 0.000000 0.000000
vn 0.000000 0.000000 1.000000
vn 0.000000 0.000000 1.000000
vn 0.000000 0.000000 1.000000
vn 0.000000 0.000000 1.000000
vn 0.000000 -1.000000 0.000000
vn 0.000000 -1.000000 0.000000
vn 0.000000 -1.000000 0.000000
vn 0.000000 -1.000000 0.000000
vn 0.000000 1.000000 0.000000
vn 0.000000 1.000000 0.000000
vn 0.000000 1.000000 0.000000
vn 0.000000 1.000000 0.000000
vn -1.000000 0.000000 0.000000
vn -1.000000 0.000000 0.000000
vn -1.000000 0.000000 0.000000
vn -1.000000 0.000000 0.000000
vn 0.000000 0.000000 -1.000000
vn 0.000000 0.000000 -1.000000
vn 0.000000 0.000000 -1.000000
vn 0.000000 0.000000 -1.000000
vn 0.000000 -1.000000 0.000000
vn 0.000000 -1.000000 0.000000
vn 0.000000 -1.000000 0.000000
vn 0.000000 -1.000000 0.000000
vn 0.000000 0.000000 1.000000
vn 0.000000 0.000000 1.000000
vn 0.000000 0.000000 1.000000
vn 0.000000 0.000000 1.000000
vn 1.000000 0.000000 0.000000
vn 1.000000 0.000000 0.000000
vn 1.000000 0.000000 0.000000
vn 1.000000 0.000000 0.000000
vn 0.000000 0.000000 1.000000
vn 0.000000 0.000000 1.000000
vn 1.000000 0.000000 0.000000
vn 1.000000 0.000000 0.000000
vn 1.000000 0.000000 0.000000
vn 1.000000 0.000000 0.000000
vn 0.000000 -1.000000 0.000000
vn 0.000000 -1.000000 0.000000
vn 0.000000 -1.000000 0.000000
vn 0.000000 -1.000000 0.000000
vn -1.000000 0.000000 0.000000
vn -1.000000 0.000000 0.000000
vn -1.000000 0.000000 0.000000
vn -1.000000 0.000000 0.000000
vn 0.000000 0.000000 -1.000000
vn 0.000000 0.000000 -1.000000
vn 0.000000 0.000000 -1.000000
vn 0.000000 0.000000 -1.000000
vn 0.000000 1.000000 0.000000
vn 0.000000 -1.000000 0.000000
vn 0.000000 -1.000000 0.000000
vn 0.000000 -1.000000 0.000000
vn 0.000000 -1.000000 0.000000
vn 1.000000 0.000000 0.000000
vn 1.000000 0.000000 0.000000
vn 1.000000 0.000000 0.000000
vn 1.000000 0.000000 0.000000
vn 0.000000 0.000000 1.000000
vn 0.000000 0.000000 1.000000
vn 0.000000 0.000000 1.000000
vn 0.000000 0.000000 1.000000
vn 0.000000 1.000000 0.000000
vn 0.000000 1.000000 0.000000
vn 0.000000 1.000000 0.000000
vn 0.000000 1.000000 0.000000
vn -1.000000 0.000000 0.000000
vn -1.000000 0.000000 0.000000
vn -1.000000 0.000000 0.000000
vn -1.000000 0.000000 0.000000
vn 0.000000 0.000000 -1.000000
vn -0.000000 0.000000 -1.000000
vn -0.000000 0.000000 -1.000000
vn 0.000000 0.000000 -1.000000
vn -1.000000 0.000000 0.000000
vn -1.000000 0.000000 0.000000
vn -0.000000 0.000000 -1.000000
vn -0.000000 0.000000 -1.000000
vn 0.000000 0.000000 -1.000000
vn 0.000000 0.000000 -1.000000
vn 0.000000 0.000000 1.000000
vn 0.000000 0.000000 1.000000
vn -1.000000 0.000000 0.000000
vn -1.000000 0.000000 0.000000
f 1/33/1 2/34/2 3/35/3 4/36/4
f 5/38/5 4/36/4 6/41/6 7/42/7
f 8/1/8 9/2/9 2/3/10 1/4/11
f 7/65/12 10/66/13 11/67/14 5/68/15
f 8/45/16 12/46/17 11/47/18 13/48/19
f 14/57/20 15/58/21 16/59/22 17/60/23
f 3/5/24 18/6/25 13/7/26 4/8/27
f 4/69/28 13/70/29 19/71/30 6/72/31
f 18/55/32 9/56/33 8/45/16 13/48/19
f 10/53/34 19/54/35 13/48/19 11/47/18
f 18/73/36 3/74/37 21/75/38 15/76/39
f 21/9/40 6/10/41 19/11/42 15/12/43
f 14/79/44 9/80/45 18/73/36 15/76/39
f 16/16/46 10/15/47 7/14/48 22/13/49
f 12/46/17 23/51/50 24/52/51 11/47/18
f 12/46/17 8/45/16 25/49/52 26/50/53
f 11/17/54 24/18/55 27/19/56 5/20/57
f 28/81/58 25/82/59 8/83/60 1/84/61
f 29/37/62 1/33/1 4/36/4 5/38/5
f 30/61/63 22/62/64 21/63/65 20/64/66
f 31/21/67 23/22/68 12/23/69 29/24/70
f 29/85/71 12/86/72 26/87/73 32/88/74
f 27/43/75 31/44/76 29/37/62 5/38/5
f 32/39/77 28/40/78 1/33/1 29/37/62
f 17/25/79 26/26/80 25/27/81 14/28/82
f 17/89/83 16/90/84 24/91/85 23/92/86
f 25/27/81 28/31/87 20/32/88 14/28/82
f 27/94/89 22/93/90 30/96/91 31/95/92
f 21/75/38 3/74/37 2/77/93 20/78/94
f 21/9/40 22/13/49 7/14/48 6/10/41
f 20/32/88 28/31/87 32/30/95 30/29/96
f 16/90/84 22/93/90 27/94/89 24/91/85
f 19/11/42 10/15/47 16/16/46 15/12/43
f 17/89/83 23/92/86 31/95/92 30/96/91
f 30/29/96 32/30/95 26/26/80 17/25/79
f 20/78/94 2/77/93 9/80/45 14/79/44
